<?xml version="1.0" encoding="UTF-8" standalone="no"?>
<!-- Created with Inkscape (http://www.inkscape.org/) -->

<svg
   version="1.1"
   id="svg1"
   width="91.334663"
   height="34.388"
   viewBox="0 0 91.334663 34.388"
   sodipodi:docname="logo.pdf"
   xmlns:inkscape="http://www.inkscape.org/namespaces/inkscape"
   xmlns:sodipodi="http://sodipodi.sourceforge.net/DTD/sodipodi-0.dtd"
   xmlns="http://www.w3.org/2000/svg"
   xmlns:svg="http://www.w3.org/2000/svg">
  <defs
     id="defs1" />
  <sodipodi:namedview
     id="namedview1"
     pagecolor="#ffffff"
     bordercolor="#000000"
     borderopacity="0.25"
     inkscape:showpageshadow="2"
     inkscape:pageopacity="0.0"
     inkscape:pagecheckerboard="0"
     inkscape:deskcolor="#d1d1d1">
    <inkscape:page
       x="0"
       y="0"
       inkscape:label="1"
       id="page1"
       width="91.334663"
       height="34.388"
       margin="0"
       bleed="0" />
  </sodipodi:namedview>
  <g
     id="g1"
     inkscape:groupmode="layer"
     inkscape:label="1">
    <g
       id="g2"
       aria-label="LoRaMINT"
       transform="matrix(1.3333333,0,0,1.3333333,11.069333,23.318667)">
      <path
         id="path2"
         d="M 1.8288594,-6.9128281 H 0.93823438 V 0.00123438 H 4.9694844 v -0.65625 c -0.8789063,0.0117188 -1.7695313,0.0234375 -2.6601563,0.0234375 H 1.8288594 Z M 10.073,-2.1901719 c 0,-1.3359375 -0.9960937,-2.4023437 -2.1796875,-2.4023437 -1.2304687,0 -2.1914062,1.1015625 -2.1914062,2.4023437 0,1.31250003 1.0078125,2.29687503 2.1796875,2.29687503 1.1953125,0 2.1914062,-1.0078125 2.1914062,-2.29687503 z m -2.1914062,1.66406253 c -0.6914063,0 -1.40625,-0.56250003 -1.40625,-1.76953123 0,-1.1953125 0.75,-1.6875 1.40625,-1.6875 0.6914062,0 1.40625,0.515625 1.40625,1.6875 0,1.1835937 -0.6679688,1.76953123 -1.40625,1.76953123 z M 14.549563,-3.2448594 c 1.03125,-0.3046875 1.699218,-1.0078125 1.699218,-1.8164062 0,-0.984375 -1.089843,-1.8515625 -2.519531,-1.8515625 h -2.390625 v 6.91406248 h 0.855469 V -3.1511094 h 1.570312 l 1.875,3.15234378 h 0.878906 z m -2.355469,-0.515625 v -2.5898437 h 1.429687 c 1.160157,0 1.816407,0.5859375 1.816407,1.2890625 0,0.7148437 -0.644532,1.3007812 -1.816407,1.3007812 z m 8.589843,0.8789063 c 0,-1.0078125 -0.726562,-1.7109375 -1.640625,-1.7109375 -0.644531,0 -1.101562,0.1640625 -1.570312,0.4335937 l 0.07031,0.65625 c 0.515625,-0.375 1.007813,-0.5039062 1.5,-0.5039062 0.46875,0 0.867188,0.3984375 0.867188,1.1367187 v 0.4335938 c -1.5,0.011719 -2.765625,0.4335937 -2.765625,1.3125 0,0.42187498 0.269531,1.23046873 1.136719,1.23046873 0.140625,0 1.078125,-0.01171875 1.652343,-0.46875 v 0.36328125 h 0.75 z M 20.0105,-1.3112656 c 0,0.1875 0,0.43359373 -0.339844,0.62109373 -0.292969,0.1875 -0.667969,0.1875 -0.773437,0.1875 -0.480469,0 -0.925782,-0.22265625 -0.925782,-0.64453123 0,-0.6914063 1.605469,-0.7617188 2.039063,-0.7851563 z m 0,0"
         style="fill:#143c55;fill-opacity:1;fill-rule:nonzero;stroke:none" />
      <path
         id="path3"
         d="m 27.13257,-3.2565781 c -0.210937,0.5039062 -0.585937,1.4296875 -0.65625,1.7695312 H 26.4646 C 26.37085,-1.8386094 25.960693,-2.8229844 25.749756,-3.3503281 L 24.484131,-6.5026719 C 24.30835,-6.9128281 23.991943,-6.9128281 23.816162,-6.9128281 h -0.832031 c -0.351563,0 -0.480469,0.1054687 -0.480469,0.4804687 v 5.95312503 c 0,0.36328125 0.117188,0.48046875 0.480469,0.48046875 h 0.269531 c 0.375,0 0.480469,-0.12890625 0.480469,-0.48046875 V -5.6237656 h 0.01172 c 0.105468,0.4453125 0.550781,1.546875 0.796875,2.1328125 l 1.148437,2.84765623 c 0.1875,0.421875 0.421875,0.421875 0.761719,0.421875 0.339844,0 0.574219,0 0.761719,-0.421875 l 1.265625,-3.12890623 c 0.105468,-0.2460938 0.644531,-1.59375 0.714843,-1.8515625 h 0.01172 v 5.14453123 c 0,0.31640625 0.07031,0.48046875 0.46875,0.48046875 h 0.269531 c 0.386719,0 0.480469,-0.12890625 0.480469,-0.48046875 V -6.4323594 c 0,-0.3164062 -0.07031,-0.4804687 -0.480469,-0.4804687 h -0.832031 c -0.246094,0 -0.503906,0.023437 -0.667969,0.4335937 z m 6.588867,-3.1757813 c 0,-0.3164062 -0.07031,-0.4804687 -0.480468,-0.4804687 h -0.503907 c -0.363281,0 -0.480468,0.1054687 -0.480468,0.4804687 v 5.95312503 c 0,0.36328125 0.117187,0.48046875 0.480468,0.48046875 h 0.503907 c 0.386718,0 0.480468,-0.12890625 0.480468,-0.48046875 z m 3.9375,-0.082031 C 37.448,-6.9128281 37.143312,-6.9128281 36.944094,-6.9128281 h -0.925782 c -0.351562,0 -0.480468,0.1054687 -0.480468,0.4804687 v 5.95312503 c 0,0.36328125 0.117187,0.48046875 0.480468,0.48046875 h 0.269532 c 0.375,0 0.480468,-0.12890625 0.480468,-0.48046875 V -5.7057969 h 0.01172 l 2.742188,5.30859378 c 0.199218,0.3984375 0.503906,0.3984375 0.703125,0.3984375 h 0.925781 c 0.375,0 0.480469,-0.12890625 0.480469,-0.48046875 V -6.4323594 c 0,-0.3164062 -0.07031,-0.4804687 -0.480469,-0.4804687 h -0.269531 c -0.375,0 -0.480469,0.1289062 -0.480469,0.4804687 v 5.2265625 h -0.01172 z m 7.810547,0.6679687 v 5.36718753 c 0,0.36328125 0.105469,0.48046875 0.480469,0.48046875 h 0.503906 c 0.386719,0 0.480469,-0.12890625 0.480469,-0.48046875 V -5.8464219 c 0.433594,0 1.558594,0.035156 1.992188,0.035156 0.28125,0 0.515625,0 0.515625,-0.4804688 v -0.082031 c 0,-0.3164063 -0.07031,-0.4804688 -0.480469,-0.4804688 h -5.53125 c -0.363281,0 -0.480469,0.1171875 -0.480469,0.4804688 v 0.082031 c 0,0.4804688 0.234375,0.4804688 0.515625,0.4804688 z m 0,0"
         style="fill:#143c55;fill-opacity:1;fill-rule:nonzero;stroke:none" />
    </g>
    <path
       id="path4"
       d="M 54.4045,5.45183 C 54.26697,7.02382 53.09038,8.30794 51.53633,8.58194"
       style="fill:none;stroke:#143c55;stroke-width:0.69739;stroke-linecap:butt;stroke-linejoin:miter;stroke-miterlimit:10;stroke-dasharray:none;stroke-opacity:1"
       transform="matrix(1.3333333,0,0,-1.3333333,6.376,23.318667)" />
    <path
       id="path5"
       d="M 56.39705,5.45183 C 56.18092,7.92209 54.332,9.93999 51.88992,10.37057"
       style="fill:none;stroke:#143c55;stroke-width:0.69739;stroke-linecap:butt;stroke-linejoin:miter;stroke-miterlimit:10;stroke-dasharray:none;stroke-opacity:1"
       transform="matrix(1.3333333,0,0,-1.3333333,6.376,23.318667)" />
    <path
       id="path6"
       d="m 58.3896,5.45183 c -0.29472,3.36854 -2.81598,6.12021 -6.14608,6.70738"
       style="fill:none;stroke:#143c55;stroke-width:0.69739;stroke-linecap:butt;stroke-linejoin:miter;stroke-miterlimit:10;stroke-dasharray:none;stroke-opacity:1"
       transform="matrix(1.3333333,0,0,-1.3333333,6.376,23.318667)" />
  </g>
</svg>
